<svg xmlns="http://www.w3.org/2000/svg" viewBox="0 0 64 64">
  <defs>
    <linearGradient id="sky" x1="0" y1="0" x2="0" y2="1">
      <stop offset="0" stop-color="#1a2233"/>
      <stop offset="1" stop-color="#0e1420"/>
    </linearGradient>
    <linearGradient id="car" x1="0" y1="0" x2="0" y2="1">
      <stop offset="0" stop-color="#f2c94c"/>
      <stop offset="1" stop-color="#d99a2b"/>
    </linearGradient>
  </defs>
  <rect width="64" height="64" rx="14" fill="url(#sky)"/>

  <!-- Skyline -->
  <rect x="4" y="18" width="8" height="20" fill="#232d40"/>
  <rect x="13" y="12" width="9" height="26" fill="#2b3650"/>
  <rect x="23" y="20" width="7" height="18" fill="#232d40"/>
  <rect x="40" y="14" width="9" height="24" fill="#2b3650"/>
  <rect x="50" y="21" width="10" height="17" fill="#232d40"/>
  <rect x="16" y="16" width="2" height="2" fill="#f7d878"/>
  <rect x="16" y="21" width="2" height="2" fill="#f7d878"/>
  <rect x="43" y="18" width="2" height="2" fill="#f7d878"/>
  <rect x="43" y="24" width="2" height="2" fill="#f7d878"/>
  <rect x="53" y="25" width="2" height="2" fill="#f7d878"/>

  <!-- Road -->
  <rect x="0" y="38" width="64" height="26" fill="#1c2534"/>
  <rect x="0" y="49" width="10" height="4" fill="#e7c25a"/>
  <rect x="18" y="49" width="10" height="4" fill="#e7c25a"/>
  <rect x="36" y="49" width="10" height="4" fill="#e7c25a"/>
  <rect x="54" y="49" width="10" height="4" fill="#e7c25a"/>

  <!-- Car (top-down) -->
  <path d="M18 56 L21 44 Q23 40 29 40 H35 Q41 40 43 44 L46 56 Z" fill="url(#car)"/>
  <path d="M25 50 L27 43 H37 L39 50 Z" fill="#0e1420" opacity="0.55"/>
  <circle cx="20" cy="56" r="4.4" fill="#111826" stroke="#f6f2ec" stroke-width="1.6"/>
  <circle cx="44" cy="56" r="4.4" fill="#111826" stroke="#f6f2ec" stroke-width="1.6"/>

  <!-- Wanted star badge -->
  <circle cx="49" cy="15" r="11" fill="#1c2534" stroke="#e6544c" stroke-width="1.6"/>
  <path d="M49 8.6 L50.7 12.9 L55.3 13.2 L51.7 16 L52.9 20.4 L49 17.9 L45.1 20.4 L46.3 16 L42.7 13.2 L47.3 12.9 Z" fill="#e6544c"/>
</svg>
